# xmcd
#
# Track frame offsets:
#	150
#	15172
#	31718
#	45657
#	58462
#	71831
#	88189
#	111177
#	121740
#	139274
#	149484
#	161158
#	171866
#	183891
#	196890
#	213398
#	231562
#	244369
#	257899
#
# Disc length: 3690 seconds
#
# Revision: 0
# Processed by: cddbd v1.5.2PL0 Copyright (c) Steve Scherf et al.
# Submitted via: EasyCDDAExtractor 16.1.0.1
#
DISCID=1d0e6813
DTITLE=Největší Hity 1969
DYEAR=2014
DGENRE=Pop
TTITLE0=Karel Gott - Láska bláznivá
TTITLE1=Waldemar Matuška - Houpavá
TTITLE2=Hana Zagorová - Bludička Julie
TTITLE3=Vávlav Neckář - Malé šípy
TTITLE4=Petr Ulrych, Hana Ulrychová, Ivo Křížan - Nechoď do kláštera
TTITLE5=Karel Černoch - Správnej džob
TTITLE6=Marta Kubišová - Ring-o-ding
TTITLE7=Viktor Sodoma - Haló, děťátko!
TTITLE8=Karel Černoch - Píseň o mé zemi
TTITLE9=Karel Gott - Teď nemám čas, možná jindy
TTITLE10=Eva Pilarová - Hrom aby do tě, lásko má
TTITLE11=Václav Neckář - Když ti nejsem hezkej
TTITLE12=Jaromír Mayer, Eva Pilarová - Rozhoupej zvony
TTITLE13=Jiří Korn, The Rebels - Šípková Růženka
TTITLE14=Naďa Urbánková - Mosaznej džbán
TTITLE15=Karel Černoch - Pateční
TTITLE16=Petr Spálený - To vadí
TTITLE17=Karel Gott - Než bude ráno
TTITLE18=Jiří Suchý - Jó, to jsem ještě žil
EXTD=YEAR: 2014\n
EXTT0=
EXTT1=
EXTT2=
EXTT3=
EXTT4=
EXTT5=
EXTT6=
EXTT7=
EXTT8=
EXTT9=
EXTT10=
EXTT11=
EXTT12=
EXTT13=
EXTT14=
EXTT15=
EXTT16=
EXTT17=
EXTT18=
PLAYORDER=
